<?xml version="1.0" encoding="utf-8"?>
<!-- Generator: Adobe Illustrator 22.0.1, SVG Export Plug-In . SVG Version: 6.00 Build 0)  -->
<svg version="1.1" id="圖層_1" xmlns="http://www.w3.org/2000/svg" xmlns:xlink="http://www.w3.org/1999/xlink" x="0px" y="0px"
	 viewBox="0 0 281.1 513.9" enable-background="new 0 0 281.1 513.9" xml:space="preserve">
<g id="obj-1">
	<path id="Path_249" fill="#C2EBFD" d="M146.3,479.4c-6.1,2.5-5.4,8.1-6.8,13.3c-2.5,9.5-8.2,18.3-17.9,20.8
		c-8.7,2.2-16.2-3.3-21.6-10.6c-6-8.1-12.6-15.8-17.8-24.4c-6.9-11.5-18.4-17.2-28.9-23.6c-3.9-2.4-10.7-1.8-15.7-0.5
		C21.4,458.4,5,480.7,5,497.5c0,0-3.3,63.1-3.1-62.6c0-20.3-1.7-40.6,1.2-60.9c3.2-3,7.1-4.6,11-6.2c20.3-8.2,20.3-8.5,4.3-24.4
		c-5.3-5.2-11.1-9.9-15.9-15.7c-2.5-9.8,2.8-19,2.5-28.6c5-7.1,11-11.9,20.4-8.8c4.6,8.5,3.1,17.7,2.7,26.6
		c-0.5,12.6,5.6,20.1,16.2,24.9c10.9,5,21.5,5,31.6-2.7c6.7-5.1,10.5-13.6,19.2-16.5c13.3,0.1,24.1,6.7,35.2,12.8
		c6.6,12.5,12.8,25.3,19.9,37.5c7.6,13,19.4,14,31.3,4c11.8-9.8,22.2-24,40.9-10.9c18.8,13.2,28.9,35.4,23.1,54.8
		c-4.9,16.4-23,29.4-41.5,29.6c-17.3,0.2-34.6-1.5-48.8,12.7C150,468.2,151.4,475.2,146.3,479.4z"/>
</g>
<g id="obj-2">
	<path id="Path_248" fill="#9ADEFE" d="M0,28.5c0,0,50.6,12.7,73.2,11.4c14.9-0.9,26.1-6.3,34.6-16.2c10.5-12.2,18.7-27.1,38.1-22.9
		c17.6,3.7,31.5,13.8,42.1,28.5c2,2.4,4.1,4.7,6.3,6.9c7.1,16.8,13.1,33.6,9.8,52.4c-2.9,16.4-11.3,24.3-27.6,24.5
		c-24.9,0.4-33.3,8.8-33.2,34c0,13.3,3.6,26.2,3.5,39.7c-0.2,16.5-6.7,27.3-22.4,32.5c-5.6-6.7-0.1-15.3-4-22.6
		c-3-5.6-4.6-7.5-11.6-4.4c-14.3,6.3-21.3,22.1-36.4,26.9c-24.7,4.9-37.5,20.8-42.2,44.7c-1.1,5.8-1.4,11.7-3.5,17.3
		c-6.1,7.8-12.4,15.1-23.8,8.8C2.4,248.3,1.7,206.6,1.5,165C1.3,102.4,0,28.5,0,28.5z"/>
	<path id="Path_252" fill="#D2F0FD" d="M147.1,64.9c-34,24.6-65.6,47.5-97.3,70.2c-2.5,1.8-6.4,2-5.2,6.4c0.9,3.3,3.9,3,6.5,3.5
		c19.4,3.4,36.3,13.3,54.6,19.8c-1.9,7-5.9,6.1-10.1,4.4c-18.1-7.1-36.4-13.9-54.3-21.6c-5.3-2.3-7.6,0.3-11.2,2.7
		C22.3,155.5,16,163,6.6,166.3c-3.1-7,1.1-9.5,5.4-11.9c17.7-9.7,21.4-24,16.9-43.2c-3.6-15.2-2.1-31.2,2.1-46.8
		c3.9,17.2,1.3,35.1,6,52.1c1.2,4.4-1.7,10.8,3.6,13c4.8,2.1,8.7-3.2,12.3-5.7c24.9-17.8,49.4-36.2,74.4-53.8
		C131.8,66.9,136.2,60.4,147.1,64.9z"/>
</g>
<g id="obj-3">
	<path id="Path_250" fill="#F198AA" d="M2.6,327.8c14.6,4.2,22.4,16.4,31.3,27c4.1,4.9,1.5,10.1-4.9,12.1
		c-8.6,2.6-17.2,4.8-25.8,7.2c-0.1-2.7-0.3-5.4-0.5-8.2c1.7-8.5,16.5-1.7,15.1-11.7c-0.9-6.3-9-9.8-13-15.2
		c-0.9-1.3-1.6-2.7-2.1-4.2C2.6,332.5,2.6,330.1,2.6,327.8z"/>
	<path id="Path_251" fill="#C2EBFD" d="M2.6,334.9c1.3,0.9,2.7,1.7,3.9,2.7c7.3,5.9,19,11.3,17.9,20.5c-1.2,9.6-14.9,3.4-21.8,7.9
		C2.6,355.6,2.6,345.2,2.6,334.9z"/>
	<path id="Path_253" fill="#FCA5B0" d="M276.3,223.5c-28.7-13.3-59.3-17-84.5,3.3c-18,14.4-39.1,14.9-58,23.4
		c-9.3,4.1-20.2,4.5-34.8,7.4c13.4-12.9,20.1-25.2,25.4-38.3c0.8-7.7,2.9-15.2,0.3-23.3c-3.5-10.9-6.7-14.4-18.5-6.9
		c-12.6,7.9-21.5,19.6-33.5,27.8c-7.1,3.8-12.5,10.1-12.6,17.6c0,24.7-12.6,39-35.1,46.1c-6.5,5.3-13.6,9.2-22.2,9.5
		c-0.8,3.4-1.5,6.9,2.3,9.1l19.4-8.2c5.9,3.4,11.8,1.3,16.7-1.4c13.6-7.5,21.8-2.1,28.3,10c5.9,11,13.7,20.2,25.8,25
		c11.8,3.3,22,11.6,35,10.9c7.5-1.6,18.2,1.9,21.5-7c3-8-4.5-14.8-8.8-21.9c-10.5-17.1-27.3-26.6-45.2-38
		c18.3-5.4,34-10.2,49.7-14.7c17-4.8,33.3-6.3,50.8,1.5c28.4,12.6,61.6,3.9,78.5-17.5C281.2,232.4,283.8,227,276.3,223.5z
		 M141.3,318.4c4.2,14-7.2,7.5-11.6,9.8c-27.1-3.4-41.3-23.2-55.9-41.9c-3.5-4.4-0.6-8.6,6.1-9.3
		C98.7,274.9,135.6,299.6,141.3,318.4L141.3,318.4z M69.8,265.2c-3.7-19.7,3.2-35.2,16.1-48.9c10-1.7,19.9-3.2,27.7,5.8
		C103.9,243.6,94.6,252.8,69.8,265.2L69.8,265.2z M263.1,240.3C252.7,250,240,252.8,227,251c-10.9,0.8-21.8-1-31.9-5.2
		c-8.5-3.5-6.8-6.4-1.8-10.9c13.2-12,51.3-16.5,68.5-8.8C271.5,230.4,268.3,235.5,263.1,240.3L263.1,240.3z"/>
	<path id="Path_254" fill="#A0E1FB" d="M113.7,222c-9.2-1.9-18.5-3.8-27.7-5.8c5-7.4,11.4-13.4,19.6-17.1c3.1-1.4,5.2-6.5,9.3-3.9
		c3.6,2.2,2.7,6.7,2.3,10.1C116.5,210.9,114.9,216.4,113.7,222z"/>
</g>
</svg>
