<?xml version="1.0" encoding="utf-8"?>
<!-- Generator: Adobe Illustrator 22.0.1, SVG Export Plug-In . SVG Version: 6.00 Build 0)  -->
<svg version="1.1" id="圖層_1" xmlns="http://www.w3.org/2000/svg" xmlns:xlink="http://www.w3.org/1999/xlink" x="0px" y="0px"
	 viewBox="0 0 416.7 497.3" style="enable-background:new 0 0 416.7 497.3;" xml:space="preserve">
<g id="obj-1">
	<path id="Path_255" style="fill:#99DEFE;" d="M115.8,354c9.9-4.6,20.1-8.6,28.9-15.4c12.5-9.6,21.9-21.2,23.3-37.5
		c1-11.8-0.6-23.4-3-34.9c-5.9,2.7-11.8,5.3-17.6,8c-12.2,5.7-23.7,12.7-35.1,19.9c-2.7,1.7-5.3,2.7-2.2,6.2c1.1,1.3,0,2.3-0.7,3.5
		c-8.8,14.4-16.5,29.5-23,45L115.8,354z"/>
	<path id="Path_256" style="fill:#99DEFE;" d="M409.1,258.5c1.8-5.1,3.5-10.2,5.7-16.3c-55.1,36.2-109.8,70.5-165.3,103.7
		c1.6,2,3.8,3.5,6.3,4.2c10.4,3.5,20.5,7.5,31.8,8.4c22.6,1.6,44.7-0.8,66.6-6c4.7-1.1,9.9-2.2,12-7.3c1.6-3.9,4.1-7.2,6-10.8
		c6.8-12.7,13.6-25.3,19.7-38.2c2.8-6,6.7-11.5,8.1-18.1C405.1,272.5,408.3,265.7,409.1,258.5z"/>
	<path id="Path_257" style="fill:#99DEFE;" d="M170.5,353c9.3-13.7,18.4-27.5,28.5-40.6c9.8-12.8,20.6-25,31.1-37.3
		c10.2-12.1,20.9-23.8,31.9-35.3c2.5-2.6,6.2-4.9,6.9-9.7l-12.5,2.6c-3.8,1.2-7.7,0-11.7,1.3c-14.6,4.9-29.4,9.6-43.7,15.5
		c-9.7,4-19.8,7-28.6,12.9c-1.2,2-0.7,4.1-0.4,6.1c1,7.4,1.9,14.7,2.3,22.2c0.7,13.2-1.8,25.4-10.2,36c-7.9,10.1-18,18.3-29.5,23.9
		c-2.3,1.1-5.2,1.7-5.7,5l37.3,6.6C167.5,359.1,168.7,355.7,170.5,353z"/>
	<path id="Path_259" style="fill:#99DEFE;" d="M276.3,380c14.6,0.6,29.1,1.3,43.7-0.7c4.3-0.6,8.5-1.6,13-1.6
		c8.1,0.1,15.5-1.4,19-10.2c1.1-2.2,2.4-4.3,4.1-6.2c0.9-1.1,2-2.3,1.4-3.5c-0.9-1.6-2.8-0.7-4.1-0.4c-14.8,3.7-30,5.8-45.3,6.2
		c-21.7,0.6-42.3-3.1-61.7-12.9c-1.6-0.8-2.9-1.6-4.7-0.4c-3.7,2.4-7.4,4.6-11.2,6.7c-3.1,1.7-3.5,3.2-0.7,6
		c9.7,9.5,22,12.9,34.1,15.4C268.4,378.9,272.3,379.8,276.3,380z"/>
	<path id="Path_261" style="fill:#9ADEFE;" d="M83.5,347.5c0.3-3,1.3-6,2.9-8.6c4.9-8.5,8.6-17.6,13.3-26.2c2.4-4.3,6.8-8,6.7-13.9
		c-16.4,11.7-31.6,25-45.5,39.6c-1.3,1.4-1.3,3.1-1.3,4.8L83.5,347.5z"/>
	<path id="Path_262" style="fill:#99DEFE;" d="M410.6,238.6c-27.9,19-56.7,36.7-85.2,54.7c-19.1,12-38.3,23.9-57.5,35.6
		c-19.6,11.9-39.5,23.2-59.3,34.9c-2.2,1.5-4.4,3-6.4,4.7l-30.6-5.4c2.9-7.9,8-14.6,12.5-21.5c10.4-15.7,22.1-30.5,34.2-45
		c10.8-12.9,21.9-25.5,33-38.1c7.9-8.9,16-17.5,24-26.3c2.3-2.5,5.2-4.5,8.3-4.6c0.4,0,0.7,0,1.1-0.1l4.7-0.4
		c3.8-0.4,7.5-0.8,11.3-0.9c6.9-0.6,15.9-1.3,26.5-2.2c14.1-1,28.3-1,42.4,0.1c1.7,0,3.3,0.1,5,0.3c1.5,0.2,3.1,0.4,4.6,0.6l0,0
		c10.7,1.7,21.1,4.8,31,9.2c1.3,0.6,2.6,1.3,2.8,2.6C413.3,238.6,411.4,238,410.6,238.6z"/>
	<path id="Path_263" style="fill:#99DEFE;" d="M257.5,441.8c-35.7,16.8-85.3,20.5-123.1,18.6C97.7,458.7-0.9,431-0.9,431
		s83.7-3.1,97.9-7.9c29.7-10,74.6-30.4,79.5-33.3c4.9-2.8,43.4-29.1,46.2-26.5c3.9,3.7,23.1,19.3,63.3,20.6
		c23.9,0.8,53.5-3.9,55.9-0.3C344.2,387.4,274.1,434,257.5,441.8z"/>
	<path id="Path_264" style="fill:#99DEFE;" d="M171.6,363.1l-0.8,4.5c-0.6,3.3-5,20.1-5,20.1l36.4-19.2L171.6,363.1z"/>
	<path id="Path_265" style="fill:#99DEFE;" d="M60.9,338.5c-2.7,1.1-57.7,85.1-54.8,85.4s64.1,0.3,73.5-1.8
		c26.2-5.8,82.3-33.7,82.3-33.7l4.2-27.2C166.2,361.2,63.6,337.4,60.9,338.5z"/>
	<path id="Path_266" style="fill:#FFFFFF;" d="M84.7,342.4c-3.6,8.8-6.6,17.9-9.2,27c-3.9,14.3-7,53.7-7,53.7l3.6-0.2
		c0,0,1.7-23.3,3.1-31.6c1.5-8.3,13.3-47.6,13.3-47.6L84.7,342.4z"/>
	<path id="Path_267" style="fill:#FFFFFF;" d="M266.9,436.7c0,0-28.4-6.4-38.7-11.1c-10.4-4.7-48.7-37.6-48.7-37.6l4.4-2.8
		c0,0,24.1,24.2,42.2,34c19,10.3,45.4,14.9,45.4,14.9L266.9,436.7z"/>
	<path id="Path_268" style="fill:#FFFFFF;" d="M174.5,460.2c0,0-21.3-14.5-28-22.1c-4.9-5.5-19.9-26.2-19.9-26.2l3-1.2
		c0,0,17.1,22.1,24.5,29.5c4.5,4.5,25.3,19.7,25.3,19.7L174.5,460.2z"/>
</g>
<g id="obj-2">
	<path id="Path_258" style="fill:#FD7E8F;" d="M171.8,253.9c-0.7-14.4,7.5-25.2,21.7-28.5c3.5-0.8,7.1-1.2,10.4-2.8
		c6.4-0.5,12.8-0.9,19-2.7c8.6-2.6,14.6-10.4,14.7-19.4c0.4-12.4-5.8-22.6-10.8-33.1c-5.5-11.6-12.8-22.4-15.1-35.3
		c-1.7-9,2.5-15.5,11.1-18.4c5.3-1.8,10.8-2.4,16.1-3.4c12.6-2.4,21-10,23.6-22.3c4.4-21.1-6.9-46.5-26.9-56.7
		c-22.4-11.5-55.3-6.1-67.6,23.8c-3.5,8.8-10.2,15.8-18.8,19.8c-10.9,5.1-22.3,5.9-33.9,2.7c-3.3-3.2-8.2-4.1-12.4-2.2
		c-6-0.7-12-2.3-18.2-2c-11.7,0.5-20,5.3-21.2,18.9c-0.8,9,2.3,17.2,5.1,25.4c4.8,14.1,11,27.8,11.8,43c0.8,16-8.1,28.4-23.4,32.7
		c-10,2.8-20.4,4.5-30.8,4.9c-2.5,0.1-6.2,0.3-5.9,3.9c0.3,4,3.9,2.6,6.3,2.3c6.4-0.7,12.7-1.9,19.1-2.7
		c15.6-1.9,29.2-7.1,37.3-21.8c2-1.2,2.4-3.3,2.8-5.3c1-4.6,1.7-9.2,2.2-13.9c0-0.6,0-1.3-0.1-1.9c-0.4-3.5-1.7-6.9-1.4-10.5
		c-2-8.3-4.6-16.5-7.6-24.5c-3.3-8.9-6.9-17.8-7.7-27.4c-1-11.6,5.3-17.1,16.7-15.4c5.5,0.8,10.9,1.8,16.3,2.9c3,0.5,6,1.1,9.1,1.5
		c9.9,2.3,19.9,1.5,29.5-0.7c16.6-3.8,26.5-15.5,33.9-30.1c12.2-24,35.7-26.2,56.4-16.2c16.5,7.9,22,23.6,23.1,40.8
		c0.7,11.4-5.4,19.2-16.2,22.8c-5.3,1.8-10.8,2.2-16.3,3.3c-13.6,2.7-20.5,12.2-19.4,26c1.1,12.2,7.4,22.4,12.5,33
		c5.3,10.9,12.3,21.2,13.2,33.9c0.5,7.5-2.9,12.5-10.3,14.3c-4.7,1-9.4,1.6-14.2,1.7c-8.8,0.4-17.5,1.8-25.3,6.3
		c-5.7,3.4-10,8.2-13.5,13.6c-4.6,9.8-4.6,20.1-3.2,30.5c0.5,7.4,2.1,14.7,2.6,22.1c1,14.7-1.4,28.3-11.8,39.8
		c-8.5,9.4-18.8,16-30.1,21.2c-3.1,1.4-7.2,1.6-8.8,5.5l11.3,2c8.2-5.1,17-9,24.5-15.3c17.2-14.2,25-31.9,22.2-54.2
		c-1-7.9-1.6-15.8-2.4-23.7C172.4,259.6,171.9,256.8,171.8,253.9z"/>
	<path id="Path_260" style="fill:#FE7E8F;" d="M87.1,258.4c-13.8,20.1-28.7,39.4-44.6,57.8c-6.2,7.1-13.4,13.3-18.8,21.1l7,1.3
		c1.7-0.8,3.3-1.9,4.7-3.2c14.2-15.9,28.3-31.9,41.1-49.1c15-20.2,28.7-41.3,42.2-62.5c2.7-5.1,5.5-10.2,8.5-15.1
		c12.4-21.7,23.6-44,33.7-66.9c1.3-3,2.4-6,3.4-9.1c0.9-2.1,0-4.4-2-5.4c-2.3-1.3-4-0.1-5.3,1.9c-1.9,2.9-3.5,5.9-4.8,9.1
		c-9.2,22.2-20.4,43.5-32,64.5c-0.8,2.6-2,5-3.6,7.2c0,0.3-0.1,0.5-0.2,0.8c-1.8,5.9-5.3,10.8-8.7,15.7
		C101.3,237.5,94.3,248,87.1,258.4z"/>
	<path id="Path_269" style="fill:#FD7E8F;" d="M72.6,368.4c-39.4,6.7-65.3,5-65.3,5l-4.8,8.4c0,0,0.7-0.1,6.2-0.3s48.8-1.9,68-6.2
		c19.2-4.3,53.7-21.8,53.7-21.8l-12.5-2.8C117.8,350.6,82.5,366.7,72.6,368.4z"/>
</g>
</svg>
