<?xml version="1.0" encoding="utf-8"?>
<!-- Generator: Adobe Illustrator 22.0.1, SVG Export Plug-In . SVG Version: 6.00 Build 0)  -->
<svg version="1.1" id="圖層_1" xmlns="http://www.w3.org/2000/svg" xmlns:xlink="http://www.w3.org/1999/xlink" x="0px" y="0px"
	 viewBox="0 0 281.1 513.9" style="enable-background:new 0 0 281.1 513.9;" xml:space="preserve">
<g id="obj-1">
	<path id="Path_249" style="fill:#C2EBFD;" d="M125.9,463.1c-14.3-14.1-31.5-12.5-48.8-12.7c-18.6-0.2-36.6-13.1-41.5-29.6
		c-5.8-19.4,4.3-41.6,23.1-54.8c18.7-13.1,29.1,1,40.9,10.9c11.9,10,23.6,9,31.3-4c7.2-12.2,13.3-25,19.9-37.5
		c11.1-6,21.9-12.7,35.2-12.8c8.6,2.9,12.5,11.3,19.2,16.5c10.1,7.7,20.6,7.7,31.6,2.7c10.6-4.8,16.7-12.3,16.2-24.9
		c-0.4-8.9-1.9-18.1,2.7-26.6c9.4-3.1,15.4,1.7,20.4,8.8c-0.3,9.6,5.1,18.8,2.5,28.6c-4.7,5.8-10.6,10.4-15.9,15.7
		c-16,15.9-16,16.2,4.3,24.4c4,1.6,7.9,3.3,11,6.2c2.9,20.2,1.1,40.6,1.2,60.9c0.2,125.7-3.1,62.6-3.1,62.6
		c0-16.8-16.4-39.1-32.8-43.3c-5-1.3-11.7-1.9-15.7,0.5c-10.6,6.5-22,12.1-28.9,23.6c-5.2,8.6-11.8,16.3-17.8,24.4
		c-5.4,7.3-12.9,12.8-21.6,10.6c-9.7-2.5-15.3-11.3-17.9-20.8c-1.4-5.2-0.7-10.7-6.8-13.3C129.7,475.2,131,468.2,125.9,463.1z"/>
</g>
<g id="obj-2">
	<path id="Path_248" style="fill:#9ADEFE;" d="M279.5,165c-0.2,41.7-0.8,83.4-1.3,125.1c-11.3,6.3-17.6-1-23.8-8.8
		c-2.1-5.6-2.4-11.5-3.5-17.3c-4.7-23.9-17.5-39.8-42.2-44.7c-15.1-4.9-22.1-20.6-36.4-26.9c-7-3.1-8.6-1.3-11.6,4.4
		c-3.9,7.3,1.6,15.9-4,22.6c-15.7-5.2-22.2-16-22.4-32.5c-0.2-13.5,3.4-26.4,3.5-39.7c0-25.2-8.3-33.6-33.2-34
		c-16.3-0.3-24.7-8.1-27.6-24.5c-3.4-18.8,2.7-35.7,9.8-52.4c2.2-2.2,4.3-4.5,6.3-6.9c10.6-14.6,24.5-24.7,42.1-28.5
		c19.4-4.1,27.6,10.8,38.1,22.9c8.6,9.9,19.8,15.3,34.6,16.2c22.6,1.4,73.2-11.4,73.2-11.4S279.8,102.4,279.5,165z"/>
	<path id="Path_252" style="fill:#D2F0FD;" d="M153.7,70.1c25,17.6,49.5,36,74.4,53.8c3.6,2.6,7.5,7.8,12.3,5.7
		c5.3-2.2,2.4-8.6,3.6-13c4.6-17,2-34.9,6-52.1c4.3,15.6,5.7,31.6,2.1,46.8c-4.5,19.2-0.8,33.5,16.9,43.2c4.3,2.4,8.5,4.8,5.4,11.9
		c-9.4-3.3-15.7-10.9-23.5-16.1c-3.5-2.4-5.8-5-11.2-2.7c-17.9,7.7-36.2,14.5-54.3,21.6c-4.2,1.7-8.2,2.6-10.1-4.4
		c18.3-6.5,35.2-16.4,54.6-19.8c2.6-0.5,5.6-0.2,6.5-3.5c1.2-4.4-2.7-4.6-5.2-6.4c-31.7-22.7-63.3-45.6-97.3-70.2
		C144.8,60.4,149.2,66.9,153.7,70.1z"/>
</g>
<g id="obj-3">
	<path id="Path_250" style="fill:#F198AA;" d="M278.4,334.9c-0.4,1.5-1.1,2.9-2.1,4.2c-4,5.5-12.1,8.9-13,15.2
		c-1.4,9.9,13.4,3.1,15.1,11.7c-0.2,2.7-0.3,5.4-0.5,8.2c-8.6-2.4-17.3-4.6-25.8-7.2c-6.4-1.9-9-7.2-4.9-12.1
		c8.9-10.6,16.7-22.9,31.3-27C278.5,330.1,278.5,332.5,278.4,334.9z"/>
	<path id="Path_251" style="fill:#C2EBFD;" d="M278.5,365.9c-6.9-4.4-20.6,1.8-21.8-7.9c-1.2-9.2,10.6-14.6,17.9-20.5
		c1.2-1,2.6-1.8,3.9-2.7C278.4,345.2,278.5,355.6,278.5,365.9z"/>
	<path id="Path_253" style="fill:#FCA5B0;" d="M4.2,237.9c16.9,21.5,50.1,30.2,78.5,17.5c17.5-7.8,33.8-6.3,50.8-1.5
		c15.8,4.5,31.4,9.3,49.7,14.7c-17.9,11.4-34.7,20.8-45.2,38c-4.3,7.1-11.8,13.9-8.8,21.9c3.3,8.9,14,5.4,21.5,7
		c13,0.6,23.2-7.6,35-10.9c12-4.8,19.9-14,25.8-25c6.5-12.1,14.7-17.5,28.3-10c4.9,2.7,10.8,4.9,16.7,1.4l19.4,8.2
		c3.9-2.3,3.1-5.7,2.3-9.1c-8.6-0.3-15.7-4.2-22.2-9.5c-22.6-7.1-35.1-21.3-35.1-46.1c0-7.5-5.4-13.8-12.6-17.6
		c-12-8.2-20.9-19.9-33.5-27.8c-11.8-7.4-15-4-18.5,6.9c-2.6,8.1-0.5,15.6,0.3,23.3c5.3,13.1,11.9,25.5,25.4,38.3
		c-14.5-2.9-25.5-3.3-34.8-7.4c-19-8.5-40-9-58-23.4c-25.3-20.2-55.9-16.6-84.5-3.3C-2.8,227-0.1,232.4,4.2,237.9z M139.8,318.4
		c5.7-18.8,42.5-43.5,61.4-41.4c6.8,0.7,9.6,4.9,6.1,9.3c-14.6,18.7-28.8,38.6-55.9,41.9C147,325.9,135.6,332.4,139.8,318.4
		L139.8,318.4z M211.2,265.2c-24.8-12.3-34-21.5-43.8-43.2c7.8-9,17.7-7.4,27.7-5.8C208,229.9,214.9,245.5,211.2,265.2L211.2,265.2z
		 M17.9,240.3c-5.2-4.8-8.3-9.9,1.4-14.3c17.2-7.7,55.4-3.2,68.5,8.8c5,4.5,6.6,7.4-1.8,10.9c-10.1,4.2-21,6-31.9,5.2
		C41.1,252.8,28.3,250,17.9,240.3L17.9,240.3z"/>
	<path id="Path_254" style="fill:#A0E1FB;" d="M163.9,205.3c-0.4-3.4-1.4-7.9,2.3-10.1c4.2-2.5,6.2,2.5,9.3,3.9
		c8.2,3.7,14.6,9.7,19.6,17.1c-9.2,1.9-18.5,3.8-27.7,5.8C166.2,216.4,164.5,210.9,163.9,205.3z"/>
</g>
</svg>
