<?xml version="1.0" encoding="utf-8"?>
<!-- Generator: Adobe Illustrator 22.0.1, SVG Export Plug-In . SVG Version: 6.00 Build 0)  -->
<svg version="1.1" id="圖層_1" xmlns="http://www.w3.org/2000/svg" xmlns:xlink="http://www.w3.org/1999/xlink" x="0px" y="0px"
	 viewBox="0 0 416.7 497.3" style="enable-background:new 0 0 416.7 497.3;" xml:space="preserve">
<g id="obj-1">
	<path id="Path_255" style="fill:#99DEFE;" d="M327.4,348.8c-6.5-15.6-14.2-30.6-23-45c-0.7-1.2-1.9-2.2-0.7-3.5
		c3.1-3.5,0.4-4.5-2.2-6.2c-11.4-7.2-22.9-14.2-35.1-19.9c-5.8-2.7-11.8-5.3-17.6-8c-2.4,11.5-4,23.1-3,34.9
		c1.5,16.3,10.8,27.9,23.3,37.5c8.8,6.8,19,10.8,28.9,15.4L327.4,348.8z"/>
	<path id="Path_256" style="fill:#99DEFE;" d="M13.8,277.9c1.4,6.6,5.3,12.2,8.1,18.1c6.1,12.9,12.9,25.6,19.7,38.2
		c1.9,3.6,4.4,6.9,6,10.8c2.1,5.1,7.3,6.2,12,7.3c21.9,5.2,44,7.7,66.6,6c11.3-0.8,21.4-4.9,31.8-8.4c2.5-0.7,4.7-2.2,6.3-4.2
		C108.9,312.6,54.2,278.3-0.9,242.1c2.1,6.2,3.9,11.2,5.7,16.3C5.6,265.7,8.8,272.5,13.8,277.9z"/>
	<path id="Path_257" style="fill:#99DEFE;" d="M247.8,362.1l37.3-6.6c-0.5-3.3-3.5-3.9-5.7-5c-11.5-5.6-21.6-13.8-29.5-23.9
		c-8.4-10.6-10.9-22.8-10.2-36c0.4-7.4,1.2-14.8,2.3-22.2c0.3-2.1,0.7-4.2-0.4-6.1c-8.8-5.9-18.9-8.9-28.6-12.9
		c-14.3-5.9-29-10.6-43.7-15.5c-4.1-1.4-7.9-0.1-11.7-1.3l-12.5-2.6c0.8,4.8,4.4,7,6.9,9.7c10.9,11.5,21.6,23.2,31.9,35.3
		c10.5,12.4,21.2,24.5,31.1,37.3c10,13.1,19.1,27,28.5,40.6C245.2,355.7,246.3,359.1,247.8,362.1z"/>
	<path id="Path_259" style="fill:#99DEFE;" d="M150.1,378.5c12.1-2.5,24.3-5.9,34.1-15.4c2.8-2.8,2.4-4.2-0.7-6
		c-3.8-2.2-7.6-4.4-11.2-6.7c-1.8-1.2-3.1-0.4-4.7,0.4c-19.4,9.8-40,13.5-61.7,12.9c-15.3-0.4-30.5-2.5-45.3-6.2
		c-1.3-0.3-3.2-1.2-4.1,0.4c-0.6,1.2,0.5,2.4,1.4,3.5c1.6,1.9,3,3.9,4.1,6.2c3.5,8.8,11,10.3,19,10.2c4.4-0.1,8.7,1,13,1.6
		c14.6,2,29.1,1.4,43.7,0.7C141.6,379.8,145.5,378.9,150.1,378.5z"/>
	<path id="Path_261" style="fill:#9ADEFE;" d="M354.3,343.3c0-1.7,0-3.4-1.3-4.8c-13.9-14.6-29.1-27.9-45.5-39.6
		c-0.1,5.9,4.3,9.5,6.7,13.9c4.7,8.6,8.4,17.7,13.3,26.2c1.6,2.6,2.6,5.5,2.9,8.6L354.3,343.3z"/>
	<path id="Path_262" style="fill:#99DEFE;" d="M0.8,236.9c0.2-1.4,1.5-2,2.8-2.6c9.9-4.5,20.3-7.6,31-9.2l0,0c1.5-0.2,3-0.4,4.6-0.6
		c1.7-0.2,3.3-0.3,5-0.3c14.1-1.1,28.3-1.1,42.4-0.1c10.6,0.9,19.6,1.6,26.5,2.2c3.8,0.1,7.5,0.6,11.3,0.9l4.7,0.4
		c0.4,0,0.7,0,1.1,0.1c3.1,0.1,6,2.1,8.3,4.6c8,8.8,16.2,17.4,24,26.3c11.1,12.6,22.2,25.2,33,38.1c12.1,14.5,23.8,29.2,34.2,45
		c4.6,6.9,9.7,13.6,12.5,21.5l-30.6,5.4c-2.1-1.7-4.2-3.2-6.4-4.7c-19.8-11.6-39.7-22.9-59.3-34.9c-19.3-11.7-38.4-23.6-57.5-35.6
		c-28.6-18-57.3-35.7-85.2-54.7C2.4,238,0.5,238.6,0.8,236.9z"/>
	<path id="Path_263" style="fill:#99DEFE;" d="M72,383.7c2.4-3.6,32.1,1,55.9,0.3c40.2-1.3,59.4-16.9,63.3-20.6
		c2.8-2.7,41.3,23.6,46.2,26.5c4.9,2.8,49.8,23.3,79.5,33.3c14.2,4.8,97.9,7.9,97.9,7.9s-98.7,27.7-135.4,29.5
		c-37.8,1.8-87.3-1.9-123.1-18.6C139.8,434,69.6,387.4,72,383.7z"/>
	<path id="Path_264" style="fill:#99DEFE;" d="M211.7,368.5l36.4,19.2c0,0-4.4-16.8-5-20.1l-0.8-4.5L211.7,368.5z"/>
	<path id="Path_265" style="fill:#99DEFE;" d="M247.7,361.2l4.2,27.2c0,0,56.2,27.9,82.3,33.7c9.4,2.1,70.5,2.1,73.5,1.8
		c2.9-0.3-52.1-84.3-54.8-85.4C350.2,337.4,247.7,361.2,247.7,361.2z"/>
	<path id="Path_266" style="fill:#FFFFFF;" d="M325.3,343.7c0,0,11.8,39.4,13.3,47.6s3.1,31.6,3.1,31.6l3.6,0.2c0,0-3-39.4-7-53.7
		c-2.6-9.2-5.6-18.2-9.2-27L325.3,343.7z"/>
	<path id="Path_267" style="fill:#FFFFFF;" d="M142.4,434c0,0,26.4-4.6,45.4-14.9c18.1-9.8,42.2-34,42.2-34l4.4,2.8
		c0,0-38.3,32.9-48.7,37.6s-38.7,11.1-38.7,11.1L142.4,434z"/>
	<path id="Path_268" style="fill:#FFFFFF;" d="M234.4,459.8c0,0,20.8-15.2,25.3-19.7c7.4-7.3,24.5-29.5,24.5-29.5l3,1.2
		c0,0-15,20.7-19.9,26.2c-6.6,7.5-28,22.1-28,22.1L234.4,459.8z"/>
</g>
<g id="obj-2">
	<path id="Path_258" style="fill:#FD7E8F;" d="M242.8,262.3c-0.8,7.9-1.4,15.8-2.4,23.7c-2.8,22.3,5,40,22.2,54.2
		c7.6,6.3,16.4,10.2,24.5,15.3l11.3-2c-1.6-4-5.7-4.1-8.8-5.5c-11.4-5.2-21.6-11.7-30.1-21.2c-10.4-11.5-12.8-25.1-11.8-39.8
		c0.5-7.4,2.1-14.7,2.6-22.1c1.4-10.4,1.4-20.7-3.2-30.5c-3.6-5.5-7.8-10.3-13.5-13.6c-7.8-4.5-16.5-5.9-25.3-6.3
		c-4.8-0.1-9.5-0.7-14.2-1.7c-7.4-1.7-10.8-6.7-10.3-14.3c0.9-12.7,7.8-23,13.2-33.9c5.2-10.6,11.5-20.7,12.5-33
		c1.2-13.8-5.7-23.3-19.4-26c-5.4-1.1-11-1.5-16.3-3.3c-10.8-3.6-16.9-11.4-16.2-22.8c1.1-17.2,6.6-32.9,23.1-40.8
		c20.7-9.9,44.2-7.7,56.4,16.2c7.4,14.6,17.3,26.3,33.9,30.1c9.7,2.2,19.6,3.1,29.5,0.7c3-0.4,6-1,9.1-1.5
		c5.4-1.1,10.8-2.1,16.3-2.9c11.5-1.7,17.7,3.7,16.7,15.4c-0.8,9.5-4.4,18.5-7.7,27.4c-3.1,8-5.6,16.2-7.6,24.5
		c0.3,3.6-1,7-1.4,10.5c-0.1,0.6-0.1,1.3-0.1,1.9c0.5,4.7,1.2,9.3,2.2,13.9c0.4,2,0.8,4.1,2.8,5.3c8.1,14.7,21.7,19.9,37.3,21.8
		c6.4,0.8,12.7,1.9,19.1,2.7c2.3,0.3,6,1.6,6.3-2.3c0.2-3.5-3.4-3.7-5.9-3.9c-10.4-0.5-20.8-2.1-30.8-4.9
		c-15.3-4.4-24.2-16.8-23.4-32.7c0.7-15.3,6.9-28.9,11.8-43c2.8-8.2,5.9-16.4,5.1-25.4c-1.1-13.6-9.4-18.4-21.2-18.9
		c-6.2-0.3-12.1,1.3-18.2,2c-4.2-1.9-9.1-1-12.4,2.2c-11.6,3.1-23,2.4-33.9-2.7c-8.5-4-15.3-11.1-18.8-19.8
		c-12.4-29.9-45.2-35.3-67.6-23.8c-20,10.2-31.2,35.6-26.9,56.7c2.5,12.3,11,19.9,23.6,22.3c5.4,1,10.8,1.7,16.1,3.4
		c8.7,2.9,12.8,9.4,11.1,18.4c-2.4,12.9-9.7,23.7-15.1,35.3c-5,10.5-11.2,20.7-10.8,33.1c0.1,9,6.1,16.8,14.7,19.4
		c6.2,1.8,12.6,2.2,19,2.7c3.3,1.6,6.9,2,10.4,2.8c14.2,3.3,22.4,14,21.7,28.5C242,256.8,241.5,259.6,242.8,262.3z"/>
	<path id="Path_260" style="fill:#FE7E8F;" d="M306.3,226.4c-3.5-4.9-7-9.9-8.7-15.7c-0.1-0.3-0.1-0.5-0.2-0.8
		c-1.6-2.2-2.8-4.6-3.6-7.2c-11.6-21-22.8-42.3-32-64.5c-1.3-3.2-2.9-6.2-4.8-9.1c-1.3-1.9-2.9-3.2-5.3-1.9c-2,1-2.9,3.3-2,5.4
		c1.1,3.1,2.1,6.1,3.4,9.1c10.1,22.9,21.3,45.2,33.7,66.9c3,4.9,5.8,10,8.5,15.1c13.5,21.2,27.1,42.3,42.2,62.5
		c12.8,17.2,26.9,33.1,41.1,49.1c1.3,1.4,2.9,2.5,4.7,3.2l7-1.3c-5.4-7.8-12.6-14-18.8-21.1c-16-18.4-30.9-37.7-44.6-57.8
		C319.6,248,312.6,237.5,306.3,226.4z"/>
	<path id="Path_269" style="fill:#FD7E8F;" d="M296.1,350.6l-12.5,2.8c0,0,34.4,17.4,53.7,21.8c19.2,4.3,62.6,6,68,6.2
		c5.5,0.2,6.2,0.3,6.2,0.3l-4.8-8.4c0,0-26,1.7-65.3-5C331.3,366.7,296.1,350.6,296.1,350.6z"/>
</g>
</svg>
